# xmcd
#
# Track frame offsets: 
#        150
#        16328
#        28415
#        44294
#        59829
#        75442
#        88890
#        103868
#        127040
#        140670
#        158295
#        167845
#        186250
#        206703
#        222611
#        237983
#        253384
#
# Disc length: 3551 seconds
#
# Revision: 1
# Processed by: cddbd v1.5.2PL0 Copyright (c) Steve Scherf et al.
# Submitted via: ExactAudioCopy v0.99pb5
#
DISCID=040ddd11
DTITLE=Various Artist - 100 70'er Hits [CD2]
DYEAR=2009
DGENRE=Rock
TTITLE0=Gasolin' - Hva' Gør Vi Nu, Lille Du?
TTITLE1=Dolly Parton - Jolene
TTITLE2=The Drifters - Kissin' In The Back Row Of The Movies
TTITLE3=Smokie - Living Next Door To Alice
TTITLE4=The Pointer Sisters - Fire
TTITLE5=Johnny Mathis feat. Deniece Williams - Too Much, Too Little, T
TTITLE5=oo Late
TTITLE6=The Delfonics - La-La Means I Love You
TTITLE7=Blue Öyster Cult - (Don't Fear) The Reaper
TTITLE8=Judas Priest - Take On The World
TTITLE9=Melissa Manchester - Midnight Blue
TTITLE10=Roger Whittaker - Finnish Whistler
TTITLE11=Sad Café - Every Day Hurts
TTITLE12=Santana - Samba Pa Ti
TTITLE13=José Feliciano - Che Sarà
TTITLE14=Kansas - Carry On Wayward Son
TTITLE15=Terry Jacks - Seasons In The Sun
TTITLE16=Bob Dylan - You Angel You
EXTD=
EXTT0=
EXTT1=
EXTT2=
EXTT3=
EXTT4=
EXTT5=
EXTT6=
EXTT7=
EXTT8=
EXTT9=
EXTT10=
EXTT11=
EXTT12=
EXTT13=
EXTT14=
EXTT15=
EXTT16=
PLAYORDER=
